<?xml version="1.0" encoding="utf-8"?>
<!-- Generator: Adobe Illustrator 24.1.1, SVG Export Plug-In . SVG Version: 6.00 Build 0)  -->
<svg version="1.1" id="레이어_1" xmlns="http://www.w3.org/2000/svg" xmlns:xlink="http://www.w3.org/1999/xlink" x="0px"
	 y="0px" viewBox="0 0 630 630" style="enable-background:new 0 0 630 630;" xml:space="preserve">
<style type="text/css">
	.st0{fill:#2F89CC;}
	.st1{fill:#0F61AA;}
</style>
<rect x="292" y="356" class="st0" width="41" height="5"/>
<g>
	<path class="st0" d="M314.9,347.8c-6.8,0.9-12.7-1.1-17.9-5.5c-4.4-3.8,0.6-5.2,1.9-7.4c2-3.3,3.3-0.8,4.6,0.8
		c0.4,0.5,1,0.9,1.5,1.3c3.4,0.7,6.7,0.5,10,0c2.7-2,3-5.1,3.1-8c0.2-11.3,0.1-22.6,0.3-33.9c0-2.4-0.8-3.4-3.1-3.1
		c-1.3,0.1-2.7-0.2-4,0c-3.9,0.6-4.7-1.1-4.7-4.7c0-3.5,1.1-4.5,4.5-4.4c9.3,0.3,18.6,0.1,27.9,0.2c2.1,2.8,2.1,5.7,0.5,8.8
		c-0.5,0.7-1.2,1.3-2,1.3c-5.2,0-5.9,3.2-5.9,7.6c-0.1,10.8,1,21.6-1.1,32.3C328.5,342.1,323.8,346.6,314.9,347.8z"/>
	<path class="st1" d="M308,347.8c-6.8,0.9-12.7-1-17.9-5.5c-4.5-3.8,0.6-5.2,1.8-7.4c1.9-3.3,3.3-0.8,4.6,0.8c0.4,0.5,1,0.9,1.5,1.3
		c3.4,0.6,6.7,0.5,10-0.1c2.7-2,3-5.1,3-8.1c0.1-11.3,0-22.6,0.1-33.9c0-2.4-0.8-3.4-3.2-3.1c-1.3,0.1-2.7-0.1-4,0.1
		c-3.9,0.6-4.7-1.1-4.7-4.7c0-3.5,1-4.5,4.5-4.5c9.3,0.2,18.6,0,27.9,0c2.2,2.8,2.1,5.7,0.5,8.8c-0.5,0.7-1.2,1.3-2,1.3
		c-5.2,0.1-5.8,3.2-5.9,7.6c0,10.8,1.2,21.6-0.9,32.3C321.7,342.1,317,346.6,308,347.8z"/>
</g>
</svg>
